<svg xmlns="http://www.w3.org/2000/svg" width="1024" height="1024" viewBox="0 0 37 37" shape-rendering="crispEdges"><path fill="#ffffff" d="M0 0h37v37H0z"/><path stroke="#000000" d="M2 2.5h7m1 0h3m2 0h1m1 0h1m6 0h1m1 0h1m1 0h7M2 3.5h1m5 0h1m1 0h1m1 0h2m1 0h2m2 0h1m3 0h2m3 0h1m5 0h1M2 4.5h1m1 0h3m1 0h1m2 0h1m1 0h2m1 0h2m1 0h2m1 0h1m1 0h1m1 0h1m1 0h1m1 0h3m1 0h1M2 5.5h1m1 0h3m1 0h1m2 0h1m2 0h2m1 0h1m5 0h2m3 0h1m1 0h3m1 0h1M2 6.5h1m1 0h3m1 0h1m3 0h2m2 0h1m1 0h1m1 0h1m4 0h2m1 0h1m1 0h3m1 0h1M2 7.5h1m5 0h1m4 0h4m1 0h3m1 0h3m1 0h1m1 0h1m5 0h1M2 8.5h7m1 0h1m1 0h1m1 0h1m1 0h1m1 0h1m1 0h1m1 0h1m1 0h1m1 0h1m1 0h7M11 9.5h3m2 0h3m1 0h1m5 0h1M3 10.5h1m4 0h4m1 0h2m2 0h1m1 0h1m4 0h1m1 0h2m5 0h2M6 11.5h1m2 0h4m2 0h3m2 0h2m1 0h3m4 0h3M4 12.5h2m1 0h2m3 0h2m1 0h1m1 0h2m1 0h1m1 0h3m1 0h3m1 0h1m1 0h1M3 13.5h1m2 0h1m2 0h3m1 0h1m1 0h1m2 0h1m9 0h7M2 14.5h1m1 0h2m1 0h2m3 0h4m1 0h4m1 0h5m1 0h2m3 0h2M6 15.5h2m2 0h1m4 0h3m4 0h1m2 0h2m1 0h1m2 0h1m1 0h2M2 16.5h1m1 0h1m3 0h3m2 0h1m5 0h1m1 0h1m2 0h1m2 0h2m1 0h1m2 0h1M3 17.5h3m8 0h5m2 0h1m4 0h2m3 0h2m1 0h1M3 18.5h1m1 0h1m2 0h3m3 0h3m2 0h3m2 0h1m2 0h1m1 0h3m2 0h1M3 19.5h1m3 0h1m1 0h1m2 0h1m1 0h3m2 0h1m1 0h5m1 0h2m2 0h4M2 20.5h1m2 0h1m2 0h1m2 0h4m2 0h1m1 0h3m3 0h1m2 0h2m1 0h2m1 0h1M11 21.5h4m1 0h5m1 0h3m1 0h3m1 0h5M4 22.5h2m1 0h2m2 0h1m1 0h5m2 0h2m1 0h1m1 0h1m1 0h1m1 0h3M2 23.5h3m1 0h1m7 0h2m4 0h1m1 0h1m1 0h2m3 0h4M2 24.5h1m1 0h1m3 0h1m2 0h1m1 0h2m1 0h1m1 0h3m7 0h4m1 0h1M2 25.5h1m2 0h1m4 0h1m3 0h2m3 0h1m5 0h1m2 0h1m2 0h4M2 26.5h2m1 0h2m1 0h2m1 0h3m1 0h1m5 0h2m1 0h1m1 0h6m1 0h2M10 27.5h2m1 0h6m2 0h1m2 0h1m1 0h1m3 0h1m1 0h3M2 28.5h7m1 0h1m1 0h1m1 0h4m1 0h1m2 0h5m1 0h1m1 0h1m1 0h2M2 29.5h1m5 0h1m2 0h1m6 0h1m1 0h2m3 0h2m3 0h5M2 30.5h1m1 0h3m1 0h1m2 0h2m3 0h1m1 0h1m3 0h1m1 0h1m1 0h6m2 0h1M2 31.5h1m1 0h3m1 0h1m2 0h2m1 0h1m1 0h1m3 0h3m2 0h1m1 0h1m1 0h3m2 0h1M2 32.5h1m1 0h3m1 0h1m2 0h3m1 0h1m6 0h3m1 0h1m2 0h2m2 0h2M2 33.5h1m5 0h1m1 0h1m1 0h2m1 0h4m1 0h1m1 0h1m4 0h1m1 0h4M2 34.5h7m2 0h1m2 0h3m2 0h1m1 0h2m3 0h1m2 0h1m1 0h1m1 0h1"/></svg>
